<svg width="145" height="38" viewBox="0 0 145 38" fill="none" xmlns="http://www.w3.org/2000/svg">
<mask id="mask0_2788_10580" style="mask-type:luminance" maskUnits="userSpaceOnUse" x="0" y="1" width="39" height="36">
<path d="M0.338501 1.44531H38.1343V36.5737H0.338501V1.44531Z" fill="white"/>
</mask>
<g mask="url(#mask0_2788_10580)">
<path d="M34.9628 19.2073V8.54548C34.9628 7.23153 34.4438 5.99638 33.4988 5.06544C32.5558 4.13633 31.3002 3.62322 29.9665 3.62322H27.9092V2.73076C27.9092 2.04355 27.3456 1.48828 26.648 1.48828C25.9523 1.48828 25.3869 2.04355 25.3869 2.73076V3.62322H18.9118V2.73076C18.9118 2.04355 18.3482 1.48828 17.6506 1.48828C16.9549 1.48828 16.3895 2.04355 16.3895 2.73076V3.62322H9.91439V2.73076C9.91439 2.04355 9.34892 1.48828 8.65323 1.48828C7.95569 1.48828 7.39207 2.04355 7.39207 2.73076V3.62322H5.33478C4.00108 3.62322 2.74735 4.13633 1.80241 5.06544C0.859334 5.99638 0.338501 7.23153 0.338501 8.54548V26.9151C0.338501 28.229 0.859334 29.466 1.80241 30.3951C2.74735 31.3261 4.00108 31.8373 5.33478 31.8373H19.4196C21.2221 34.643 24.3991 36.5122 28.0115 36.5122C33.6142 36.5122 38.1733 32.0206 38.1733 26.5009C38.1733 23.6275 36.9363 21.0344 34.9628 19.2073ZM3.58627 6.82287C4.05316 6.3629 4.67444 6.10817 5.33478 6.10817H7.39207V7.00246C7.39207 7.68784 7.95569 8.24494 8.65323 8.24494C9.34892 8.24494 9.91439 7.68784 9.91439 7.00246V6.10817H16.3895V7.00246C16.3895 7.68784 16.9549 8.24494 17.6506 8.24494C18.3482 8.24494 18.9118 7.68784 18.9118 7.00246V6.10817H25.3869V7.00246C25.3869 7.68784 25.9523 8.24494 26.648 8.24494C27.3456 8.24494 27.9092 7.68784 27.9092 7.00246V6.10817H29.9665C30.6268 6.10817 31.2481 6.3629 31.715 6.82287C32.1837 7.28284 32.4404 7.89492 32.4404 8.54548V12.4103H2.86082V8.54548C2.86082 7.89492 3.11938 7.28284 3.58627 6.82287ZM5.33478 29.3524C4.67444 29.3524 4.05316 29.0995 3.58627 28.6377C3.11938 28.1777 2.86082 27.5656 2.86082 26.9151V14.8953H32.4404V17.4902C31.1011 16.8488 29.5982 16.4878 28.0096 16.4878C22.407 16.4878 17.8497 20.9794 17.8497 26.4991C17.8497 27.4905 17.9985 28.4471 18.2719 29.3524H5.33478ZM28.0115 34.0254C23.7983 34.0254 20.372 30.6498 20.372 26.4991C20.372 22.3502 23.7983 18.9728 28.0115 18.9728C32.2228 18.9728 35.651 22.3502 35.651 26.4991C35.651 30.6498 32.2228 34.0254 28.0115 34.0254Z" fill="#3C6255"/>
</g>
<path d="M29.2728 25.9862V22.1507C29.2728 21.4635 28.7073 20.9082 28.0116 20.9082C27.3141 20.9082 26.7505 21.4635 26.7505 22.1507V26.4993C26.7505 26.8292 26.8826 27.1462 27.1188 27.379L29.0663 29.2977C29.3137 29.5396 29.6355 29.6605 29.9592 29.6605C30.281 29.6605 30.6047 29.5396 30.8502 29.2977C31.3431 28.812 31.3431 28.0259 30.8502 27.5402L29.2728 25.9862Z" fill="#3C6255"/>
<path d="M47.1904 23.5043C48.3083 23.5043 49.2886 23.103 50.0736 22.392C50.8567 23.103 51.8276 23.5043 52.9456 23.5043C54.1156 23.5043 55.2019 23.0407 56.0055 22.2582C56.7997 21.4867 57.2704 20.4165 57.2704 19.2748V11.1547C57.2704 10.7845 57.1029 10.4144 56.8518 10.167C56.5914 9.91956 56.2157 9.76562 55.8399 9.76562C55.4326 9.76562 55.0773 9.91956 54.8262 10.167C54.5639 10.4144 54.3983 10.7845 54.3983 11.1547V19.141C54.3983 19.5423 54.2309 19.9015 53.9686 20.1599C53.7082 20.4165 53.3325 20.5814 52.9251 20.5814C52.5178 20.5814 52.1625 20.4165 51.9114 20.1599C51.6509 19.8814 51.5151 19.5423 51.5151 19.141V11.1749C51.5151 10.7937 51.357 10.4345 51.0966 10.1761C50.8362 9.91956 50.4698 9.76562 50.0829 9.76562C49.6867 9.76562 49.3518 9.8994 49.071 10.1761C48.8087 10.4345 48.6524 10.7937 48.6524 11.1749V19.141C48.6524 19.5423 48.4962 19.9015 48.2451 20.1599C47.9939 20.4165 47.6182 20.5814 47.2108 20.5814C46.8035 20.5814 46.437 20.4165 46.1878 20.1599C45.9255 19.9015 45.7581 19.5423 45.7581 19.141V11.1547C45.7581 10.7735 45.6018 10.4144 45.3414 10.167C45.0791 9.91956 44.7034 9.76562 44.3276 9.76562C43.9407 9.76562 43.5966 9.8994 43.3139 10.167C43.0535 10.4144 42.8972 10.7735 42.8972 11.1547V19.2748C42.8972 20.4165 43.3567 21.4757 44.1491 22.2582C44.9433 23.0407 46.0204 23.5043 47.1904 23.5043Z" fill="#3C6255"/>
<path d="M60.2667 23.5049C60.6536 23.5049 60.9866 23.3712 61.2488 23.1128C61.4981 22.8672 61.6562 22.5264 61.6562 22.1562V11.1242C61.6562 10.743 61.5204 10.4241 61.2488 10.1566C60.9773 9.90001 60.6536 9.77539 60.2667 9.77539C59.891 9.77539 59.5357 9.92016 59.2846 10.1566C59.013 10.4241 58.8772 10.743 58.8772 11.1242V22.1562C58.8772 22.5264 59.0334 22.8672 59.2846 23.1128C59.5357 23.3602 59.891 23.5049 60.2667 23.5049Z" fill="#3C6255"/>
<path d="M67.6925 23.5136C68.0682 23.5136 68.4235 23.3707 68.6839 23.1233C68.9351 22.8759 69.0913 22.5368 69.0913 22.1667V12.5237H71.6936C72.0694 12.5237 72.4246 12.379 72.6739 12.1316C72.925 11.886 73.0813 11.5451 73.0813 11.175C73.0813 10.8048 72.925 10.4548 72.6739 10.1982C72.4246 9.95081 72.0694 9.79688 71.6936 9.79688H63.7118C63.3249 9.79688 63.0013 9.93065 62.7297 10.1982C62.4786 10.4438 62.3335 10.7846 62.3335 11.1548C62.3335 11.536 62.4693 11.864 62.7297 12.1224C63.0013 12.3899 63.3249 12.5237 63.7118 12.5237H66.3644V22.1667C66.3644 22.557 66.4909 22.8759 66.742 23.1233C66.9912 23.3798 67.3056 23.5136 67.6925 23.5136Z" fill="#3C6255"/>
<path d="M75.1693 23.5049C75.5562 23.5049 75.891 23.3712 76.1514 23.1128C76.4026 22.8672 76.5588 22.5264 76.5588 22.1562V18.3591H81.3635V22.1562C81.3635 22.5264 81.5216 22.8672 81.7709 23.1128C82.022 23.3602 82.3773 23.5049 82.753 23.5049C83.1399 23.5049 83.4747 23.3712 83.7351 23.1128C83.9863 22.8672 84.1425 22.5264 84.1425 22.1562V11.1242C84.1425 10.743 84.0179 10.4241 83.7556 10.1566C83.484 9.90001 83.1604 9.77539 82.7735 9.77539C82.3977 9.77539 82.0424 9.92016 81.7932 10.1566C81.5309 10.415 81.3635 10.754 81.3635 11.1242V15.6103H76.5588V11.1242C76.5588 10.743 76.423 10.4241 76.1514 10.1566C75.8799 9.90001 75.5562 9.77539 75.1693 9.77539C74.7824 9.77539 74.4587 9.90001 74.1872 10.1566C73.9156 10.4241 73.7798 10.743 73.7798 11.1242V22.1562C73.7798 22.5264 73.9379 22.8672 74.1872 23.1128C74.4494 23.3712 74.7824 23.5049 75.1693 23.5049Z" fill="#3C6255"/>
<path d="M91.2013 23.5136C91.5882 23.5136 91.9211 23.3798 92.1834 23.1233C92.4327 22.8759 92.5908 22.5368 92.5908 22.1667V20.0867H95.1187C96.5287 20.0867 97.8438 19.5424 98.8054 18.606C99.7671 17.6696 100.331 16.3831 100.331 15.0142C100.331 13.5005 99.7764 12.2342 98.8054 11.2886C97.8438 10.3521 96.5287 9.79688 95.1187 9.79688H91.2013C90.8255 9.79688 90.4702 9.95081 90.2191 10.1982C89.968 10.4438 89.8118 10.7938 89.8118 11.164V22.1667C89.8118 22.5368 89.968 22.8759 90.2191 23.1233C90.4702 23.3707 90.8255 23.5136 91.2013 23.5136ZM92.5908 17.3507V12.5439H95.1596C95.7772 12.5439 96.3929 12.8114 96.8207 13.2531C97.2485 13.6764 97.5313 14.3856 97.5313 15.0142C97.5313 15.6208 97.2597 16.198 96.8319 16.6397C96.4022 17.0831 95.7865 17.3507 95.1596 17.3507H92.5908Z" fill="#3C6255"/>
<path d="M108.706 23.3913C109.104 23.3913 109.428 23.2685 109.688 23.0102C109.951 22.7628 110.086 22.4439 110.086 22.0426C110.086 21.6632 109.951 21.3334 109.688 21.075C109.417 20.8074 109.093 20.6736 108.706 20.6736L103.965 20.6645V11.1242C103.965 10.743 103.829 10.4241 103.557 10.1566C103.286 9.90001 102.962 9.77539 102.575 9.77539C102.2 9.77539 101.844 9.92016 101.593 10.1566C101.322 10.4241 101.186 10.743 101.186 11.1242V22.0426C101.186 22.4146 101.31 22.7224 101.573 22.979C101.813 23.2264 102.147 23.3803 102.512 23.3913H108.706Z" fill="#3C6255"/>
<path d="M112.591 23.4934C112.967 23.4934 113.342 23.3395 113.605 23.0921C113.885 22.8356 114.021 22.5057 114.021 22.1044V19.9529H118.473V22.1044C118.473 22.4947 118.618 22.8246 118.9 23.0921C119.151 23.3395 119.507 23.4934 119.914 23.4934C120.29 23.4934 120.666 23.3395 120.926 23.0921C121.209 22.8154 121.345 22.4855 121.345 22.1044V15.3532C121.345 13.6654 120.853 12.2562 119.966 11.2977C119.057 10.321 117.773 9.79688 116.196 9.79688C114.639 9.79688 113.365 10.3411 112.487 11.3197C111.62 12.2763 111.16 13.6251 111.16 15.1791V22.1044C111.16 22.5057 111.296 22.8356 111.577 23.0921C111.86 23.3597 112.204 23.4934 112.591 23.4934ZM114.021 17.1436V15.3642C114.021 13.4602 114.795 12.6062 116.257 12.6062C117.71 12.6062 118.473 13.5939 118.473 15.3532V17.1436H114.021Z" fill="#3C6255"/>
<path d="M124.477 23.4934C124.853 23.4934 125.24 23.3395 125.501 23.0921C125.783 22.8154 125.919 22.4855 125.919 22.1044V15.3642C125.919 13.4602 126.659 12.6062 128.153 12.6062C129.574 12.6062 130.368 13.6141 130.368 15.3532V22.1044C130.368 22.5057 130.504 22.8356 130.787 23.0921C131.068 23.3597 131.414 23.4934 131.799 23.4934C132.175 23.4934 132.552 23.3395 132.813 23.0921C133.095 22.8356 133.231 22.5057 133.231 22.1044V15.3532C133.231 13.6654 132.749 12.2562 131.862 11.2977C130.953 10.321 129.658 9.79688 128.081 9.79688C126.524 9.79688 125.249 10.3411 124.371 11.3197C123.505 12.2763 123.045 13.6251 123.045 15.1791V22.1044C123.045 22.4947 123.192 22.8246 123.475 23.0921C123.724 23.3395 124.1 23.4934 124.477 23.4934Z" fill="#3C6255"/>
</svg>
