<svg width="280" height="233" viewBox="0 0 280 233" fill="none" xmlns="http://www.w3.org/2000/svg">
<mask id="mask0_2788_10622" style="mask-type:luminance" maskUnits="userSpaceOnUse" x="70" y="0" width="140" height="131">
<path d="M70.6943 0.423828H209.028V130.923H70.6943V0.423828Z" fill="white"/>
</mask>
<g mask="url(#mask0_2788_10622)">
<path d="M197.543 66.3703V26.7785C197.543 21.8983 195.638 17.3085 192.179 13.8543C188.724 10.4043 184.127 8.50167 179.236 8.50167H171.701V5.18177C171.701 2.63767 169.635 0.570312 167.083 0.570312C164.531 0.570312 162.461 2.63767 162.461 5.18177V8.50167H138.741V5.18177C138.741 2.63767 136.671 0.570312 134.119 0.570312C131.567 0.570312 129.501 2.63767 129.501 5.18177V8.50167H105.777V5.18177C105.777 2.63767 103.706 0.570312 101.154 0.570312C98.6023 0.570312 96.5363 2.63767 96.5363 5.18177V8.50167H88.9973C84.1101 8.50167 79.5181 10.4 76.0546 13.8543C72.5997 17.3085 70.6943 21.8983 70.6943 26.7785V94.9882C70.6943 99.8727 72.5997 104.462 76.0589 107.912C79.5181 111.367 84.1101 113.269 88.9973 113.269H140.603C147.205 123.684 158.841 130.623 172.075 130.623C192.604 130.623 209.301 113.945 209.301 93.4496C209.301 82.7791 204.774 73.1531 197.543 66.3703ZM82.591 20.3814C84.3054 18.6738 86.5798 17.7289 88.9973 17.7289H96.5363V21.0488C96.5363 23.5973 98.6023 25.6603 101.154 25.6603C103.706 25.6603 105.777 23.5973 105.777 21.0488V17.7289H129.501V21.0488C129.501 23.5973 131.567 25.6603 134.119 25.6603C136.671 25.6603 138.741 23.5973 138.741 21.0488V17.7289H162.461V21.0488C162.461 23.5973 164.531 25.6603 167.083 25.6603C169.635 25.6603 171.701 23.5973 171.701 21.0488V17.7289H179.236C181.658 17.7289 183.937 18.6694 185.647 20.3814C187.357 22.089 188.298 24.3644 188.298 26.7785V41.1286H79.9348V26.7785C79.9348 24.3644 80.881 22.089 82.591 20.3814ZM88.9973 104.038C86.5798 104.038 84.3054 103.097 82.591 101.39C80.881 99.6777 79.9348 97.4066 79.9348 94.9882V50.3559H188.303V59.9949C183.394 57.6111 177.886 56.2719 172.07 56.2719C151.545 56.2719 134.844 72.9494 134.844 93.4453C134.844 97.1249 135.391 100.679 136.393 104.038H88.9973ZM172.075 121.396C156.641 121.396 144.084 108.857 144.084 93.4453C144.084 78.0376 156.641 65.4991 172.075 65.4991C187.509 65.4991 200.061 78.0376 200.061 93.4453C200.061 108.857 187.504 121.396 172.075 121.396Z" fill="#3C6255"/>
</g>
<path d="M176.693 91.5349V77.2931C176.693 74.7447 174.627 72.6816 172.075 72.6816C169.522 72.6816 167.452 74.7447 167.452 77.2931V93.4462C167.452 94.6727 167.938 95.8473 168.806 96.7098L175.942 103.835C176.845 104.736 178.025 105.187 179.21 105.187C180.391 105.187 181.575 104.736 182.478 103.835C184.279 102.032 184.279 99.1108 182.478 97.3079L176.693 91.5349Z" fill="#3C6255"/>
<path d="M33.3679 195.78C36.2673 195.78 38.8193 194.723 40.8506 192.855C42.8862 194.723 45.4079 195.78 48.3115 195.78C51.3497 195.78 54.1709 194.562 56.2586 192.504C58.3202 190.471 59.5398 187.654 59.5398 184.646V163.275C59.5398 162.304 59.1058 161.329 58.4548 160.679C57.7777 160.028 56.8011 159.621 55.8245 159.621C54.7655 159.621 53.8454 160.028 53.1943 160.679C52.5173 161.329 52.0832 162.304 52.0832 163.275V184.295C52.0832 185.353 51.6492 186.297 50.9721 186.978C50.2907 187.654 49.3141 188.087 48.2594 188.087C47.2004 188.087 46.2759 187.654 45.6249 186.978C44.9478 186.245 44.5962 185.353 44.5962 184.295V163.331C44.5962 162.33 44.1883 161.381 43.5112 160.705C42.8341 160.028 41.8836 159.621 40.881 159.621C39.848 159.621 38.9799 159.972 38.2508 160.705C37.5693 161.381 37.1657 162.33 37.1657 163.331V184.295C37.1657 185.353 36.7577 186.297 36.1067 186.978C35.4556 187.654 34.4791 188.087 33.42 188.087C32.361 188.087 31.4148 187.654 30.7638 186.978C30.0824 186.297 29.6527 185.353 29.6527 184.295V163.275C29.6527 162.274 29.2447 161.329 28.5676 160.679C27.8862 160.028 26.9096 159.621 25.9331 159.621C24.9304 159.621 24.0364 159.972 23.3028 160.679C22.6258 161.329 22.2178 162.274 22.2178 163.275V184.646C22.2178 187.654 23.4114 190.445 25.473 192.504C27.5346 194.562 30.3298 195.78 33.3679 195.78Z" fill="#3C6255"/>
<path d="M67.3175 195.78C68.3244 195.78 69.1925 195.429 69.8695 194.748C70.5206 194.098 70.9286 193.205 70.9286 192.23V163.196C70.9286 162.195 70.5727 161.354 69.8695 160.648C69.1621 159.972 68.3244 159.646 67.3175 159.646C66.3409 159.646 65.4208 160.028 64.7697 160.648C64.0623 161.354 63.7107 162.195 63.7107 163.196V192.23C63.7107 193.205 64.1187 194.098 64.7697 194.748C65.4208 195.398 66.3409 195.78 67.3175 195.78Z" fill="#3C6255"/>
<path d="M86.599 195.806C87.5756 195.806 88.4957 195.429 89.1771 194.779C89.8282 194.129 90.2318 193.232 90.2318 192.256V166.88H96.9853C97.9619 166.88 98.8863 166.499 99.5374 165.849C100.188 165.199 100.596 164.306 100.596 163.331C100.596 162.356 100.188 161.437 99.5374 160.756C98.8863 160.106 97.9619 159.703 96.9853 159.703H76.2648C75.2622 159.703 74.4202 160.054 73.7127 160.756C73.0617 161.406 72.6841 162.304 72.6841 163.274C72.6841 164.28 73.0356 165.147 73.7127 165.823C74.4202 166.525 75.2622 166.88 76.2648 166.88H83.1528V192.256C83.1528 193.288 83.4784 194.129 84.1294 194.779C84.7804 195.455 85.5964 195.806 86.599 195.806Z" fill="#3C6255"/>
<path d="M106.013 195.78C107.015 195.78 107.883 195.429 108.565 194.748C109.216 194.098 109.62 193.205 109.62 192.23V182.236H122.098V192.23C122.098 193.205 122.506 194.098 123.157 194.748C123.808 195.398 124.728 195.78 125.705 195.78C126.707 195.78 127.575 195.429 128.257 194.748C128.908 194.098 129.311 193.205 129.311 192.23V163.196C129.311 162.195 128.986 161.354 128.309 160.648C127.606 159.972 126.764 159.646 125.761 159.646C124.784 159.646 123.86 160.028 123.209 160.648C122.532 161.328 122.098 162.221 122.098 163.196V175.002H109.62V163.196C109.62 162.195 109.268 161.354 108.565 160.648C107.857 159.972 107.015 159.646 106.013 159.646C105.01 159.646 104.168 159.972 103.465 160.648C102.758 161.354 102.406 162.195 102.406 163.196V192.23C102.406 193.205 102.814 194.098 103.465 194.748C104.142 195.429 105.01 195.78 106.013 195.78Z" fill="#3C6255"/>
<path d="M147.635 195.806C148.642 195.806 149.51 195.455 150.187 194.779C150.838 194.129 151.246 193.232 151.246 192.256V186.787H157.809C161.472 186.787 164.888 185.352 167.384 182.886C169.879 180.42 171.342 177.035 171.342 173.433C171.342 169.45 169.905 166.122 167.384 163.63C164.888 161.164 161.472 159.703 157.809 159.703H147.635C146.659 159.703 145.739 160.106 145.088 160.756C144.437 161.406 144.029 162.33 144.029 163.305V192.256C144.029 193.232 144.437 194.129 145.088 194.779C145.739 195.429 146.659 195.806 147.635 195.806ZM151.246 179.584V166.932H157.917C159.519 166.932 161.116 167.639 162.227 168.8C163.343 169.914 164.072 171.782 164.072 173.433C164.072 175.033 163.369 176.55 162.258 177.711C161.147 178.877 159.545 179.584 157.917 179.584H151.246Z" fill="#3C6255"/>
<path d="M193.092 195.481C194.12 195.481 194.962 195.156 195.639 194.479C196.316 193.829 196.672 192.989 196.672 191.931C196.672 190.93 196.316 190.063 195.639 189.387C194.936 188.68 194.094 188.329 193.092 188.329L180.778 188.303V163.196C180.778 162.195 180.422 161.354 179.719 160.648C179.012 159.972 178.174 159.646 177.167 159.646C176.191 159.646 175.27 160.028 174.619 160.648C173.912 161.354 173.56 162.195 173.56 163.196V191.931C173.56 192.906 173.886 193.721 174.563 194.397C175.188 195.047 176.056 195.455 177.006 195.481H193.092Z" fill="#3C6255"/>
<path d="M203.175 195.75C204.151 195.75 205.128 195.347 205.805 194.696C206.538 194.02 206.89 193.154 206.89 192.096V186.436H218.444V192.096C218.444 193.123 218.826 193.99 219.555 194.696C220.206 195.347 221.13 195.75 222.19 195.75C223.166 195.75 224.143 195.347 224.82 194.696C225.553 193.964 225.905 193.097 225.905 192.096V174.326C225.905 169.884 224.629 166.174 222.324 163.656C219.963 161.081 216.63 159.703 212.532 159.703C208.492 159.703 205.18 161.138 202.901 163.708C200.653 166.23 199.459 169.776 199.459 173.867V192.096C199.459 193.154 199.811 194.02 200.545 194.696C201.274 195.399 202.172 195.75 203.175 195.75ZM206.89 179.042V174.352C206.89 169.342 208.895 167.097 212.693 167.097C216.465 167.097 218.444 169.698 218.444 174.326V179.042H206.89Z" fill="#3C6255"/>
<path d="M234.035 195.75C235.011 195.75 236.014 195.347 236.695 194.696C237.424 193.964 237.776 193.097 237.776 192.096V174.352C237.776 169.342 239.703 167.097 243.583 167.097C247.272 167.097 249.334 169.75 249.334 174.326V192.096C249.334 193.154 249.686 194.02 250.419 194.696C251.148 195.399 252.047 195.75 253.049 195.75C254.026 195.75 255.002 195.347 255.68 194.696C256.413 194.02 256.765 193.154 256.765 192.096V174.326C256.765 169.884 255.519 166.174 253.21 163.656C250.853 161.081 247.489 159.703 243.392 159.703C239.351 159.703 236.044 161.138 233.766 163.708C231.513 166.23 230.319 169.776 230.319 173.867V192.096C230.319 193.123 230.697 193.99 231.43 194.696C232.081 195.347 233.058 195.75 234.035 195.75Z" fill="#3C6255"/>
</svg>
