<svg width="38" height="38" viewBox="0 0 38 38" fill="none" xmlns="http://www.w3.org/2000/svg">
<circle cx="19" cy="19" r="18" fill="#A3C4A2" stroke="white" stroke-width="2"/>
<path d="M14.9181 25V13.8H20.1661C21.5101 13.8 22.5341 14.0667 23.2381 14.6C23.9421 15.1227 24.2941 15.8267 24.2941 16.712C24.2941 17.3093 24.1554 17.8213 23.8781 18.248C23.6007 18.664 23.2274 18.9893 22.7581 19.224C22.2994 19.448 21.7981 19.56 21.2541 19.56L21.5421 18.984C22.1714 18.984 22.7367 19.1013 23.2381 19.336C23.7394 19.56 24.1341 19.8907 24.4221 20.328C24.7207 20.7653 24.8701 21.3093 24.8701 21.96C24.8701 22.92 24.5021 23.6667 23.7661 24.2C23.0301 24.7333 21.9367 25 20.4861 25H14.9181ZM16.9981 23.368H20.3581C21.1367 23.368 21.7341 23.24 22.1501 22.984C22.5661 22.728 22.7741 22.3173 22.7741 21.752C22.7741 21.1973 22.5661 20.792 22.1501 20.536C21.7341 20.2693 21.1367 20.136 20.3581 20.136H16.8381V18.52H19.9421C20.6674 18.52 21.2221 18.392 21.6061 18.136C22.0007 17.88 22.1981 17.496 22.1981 16.984C22.1981 16.4613 22.0007 16.072 21.6061 15.816C21.2221 15.56 20.6674 15.432 19.9421 15.432H16.9981V23.368Z" fill="white"/>
</svg>
