<svg width="31" height="31" viewBox="0 0 31 31" fill="none" xmlns="http://www.w3.org/2000/svg">
<mask id="mask0_2788_10573" style="mask-type:luminance" maskUnits="userSpaceOnUse" x="1" y="2" width="29" height="27">
<path d="M1.73755 2.5625H29.2639V28.4372H1.73755V2.5625Z" fill="white"/>
</mask>
<g mask="url(#mask0_2788_10573)">
<path d="M26.926 15.6533V7.78056C26.926 6.80987 26.5482 5.89698 25.8614 5.21046C25.1745 4.52394 24.262 4.14581 23.2913 4.14581H21.7949V3.48609C21.7949 2.97943 21.3841 2.56836 20.8775 2.56836C20.3708 2.56836 19.9601 2.97943 19.9601 3.48609V4.14581H15.2494V3.48609C15.2494 2.97943 14.8386 2.56836 14.3316 2.56836C13.825 2.56836 13.4142 2.97943 13.4142 3.48609V4.14581H8.70318V3.48609C8.70318 2.97943 8.29243 2.56836 7.78578 2.56836C7.27912 2.56836 6.86837 2.97943 6.86837 3.48609V4.14581H5.37198C4.40161 4.14581 3.48873 4.52362 2.80188 5.21046C2.11536 5.89698 1.73755 6.80987 1.73755 7.78056V21.3447C1.73755 22.3157 2.11536 23.2282 2.80221 23.9151C3.48873 24.6016 4.40161 24.9797 5.37198 24.9797H15.6191C16.9301 27.0516 19.2406 28.4311 21.8685 28.4311C25.945 28.4311 29.2617 25.1147 29.2617 21.0382C29.2617 18.9167 28.3624 17.0027 26.926 15.6533ZM4.09936 6.50827C4.43972 6.16823 4.89148 5.98094 5.37198 5.98094H6.86837V6.64066C6.86837 7.14732 7.27912 7.55807 7.78578 7.55807C8.29243 7.55807 8.70318 7.14732 8.70318 6.64066V5.98094H13.4142V6.64066C13.4142 7.14732 13.825 7.55807 14.3316 7.55807C14.8386 7.55807 15.2494 7.14732 15.2494 6.64066V5.98094H19.9601V6.64066C19.9601 7.14732 20.3708 7.55807 20.8775 7.55807C21.3841 7.55807 21.7949 7.14732 21.7949 6.64066V5.98094H23.2913C23.7718 5.98094 24.2239 6.16791 24.5639 6.50827C24.9039 6.84797 25.0909 7.30006 25.0909 7.78056V10.6342H3.57236V7.78056C3.57236 7.30006 3.75965 6.84797 4.09936 6.50827ZM5.37198 23.1446C4.89148 23.1446 4.43972 22.9573 4.09968 22.6173C3.75965 22.2773 3.57236 21.8255 3.57236 21.3447V12.4693H25.0912V14.3858C24.1166 13.9118 23.0229 13.645 21.8685 13.645C17.792 13.645 14.476 16.9617 14.476 21.0382C14.476 21.77 14.5845 22.4765 14.7831 23.1446H5.37198ZM21.8685 26.5959C18.804 26.5959 16.3111 24.1027 16.3111 21.0382C16.3111 17.9734 18.8043 15.4802 21.8685 15.4802C24.9333 15.4802 27.4265 17.9734 27.4265 21.0382C27.4265 24.1027 24.9333 26.5959 21.8685 26.5959Z" fill="#3C6255"/>
</g>
<path d="M22.786 20.6579V17.8256C22.786 17.319 22.3752 16.9082 21.8686 16.9082C21.3619 16.9082 20.9512 17.319 20.9512 17.8256V21.038C20.9512 21.2811 21.0477 21.5146 21.2198 21.6867L22.6371 23.1037C22.816 23.2826 23.0508 23.372 23.2855 23.372C23.5206 23.372 23.7554 23.2826 23.9346 23.1034C24.2927 22.7449 24.2927 22.164 23.9346 21.8059L22.786 20.6579Z" fill="#3C6255"/>
</svg>
